<svg width="99" height="73" viewBox="0 0 99 73" fill="none" xmlns="http://www.w3.org/2000/svg">
<path d="M39.1192 3.32475L39.1255 3.32729C42.4285 4.66117 45.2233 6.75494 47.5191 9.62474L47.5268 9.63429L47.5346 9.64364C49.8942 12.4496 51.7375 16.0514 53.0406 20.4822L53.0406 20.4822L53.0445 20.4951C54.4073 24.9079 55.1 30.2033 55.1 36.4C55.1 42.6681 54.4396 48.0013 53.1406 52.4179C51.836 56.8536 50.0233 60.4591 47.726 63.2668C45.4309 66.072 42.6342 68.1366 39.3255 69.4728L39.3193 69.4754C36.056 70.8191 32.3878 71.5001 28.3 71.5001C24.2139 71.5001 20.5107 70.8196 17.1776 69.4741C13.9363 68.1388 11.1355 66.0735 8.76967 63.2616C6.47558 60.456 4.66496 56.8544 3.36129 52.4244C2.12708 48.0042 1.5 42.6685 1.5 36.4C1.5 30.1998 2.16012 24.8997 3.45937 20.4822C4.76254 16.0514 6.60581 12.4496 8.96536 9.64364L8.96541 9.64368L8.97243 9.63515C11.3405 6.75509 14.1418 4.65841 17.3808 3.32472C20.6459 1.98027 24.2811 1.30005 28.3 1.30005C32.2499 1.30005 35.8522 1.97948 39.1192 3.32475ZM17.3633 18.0524L17.3608 18.0562C14.8632 21.9097 13.7 28.0905 13.7 36.4C13.7 44.7743 14.8626 50.9895 17.3608 54.8439L17.3608 54.844L17.368 54.8547C19.9538 58.7335 23.6329 60.7001 28.3 60.7001C32.9067 60.7001 36.5497 58.7282 39.132 54.8547C41.7036 50.9974 42.9 44.7769 42.9 36.4C42.9 28.0903 41.7038 21.9055 39.1343 18.0487C36.5557 14.1114 32.9135 12.1 28.3 12.1C23.6247 12.1 19.9455 14.1073 17.3633 18.0524ZM88.4291 2.20005H97.7531V71H85.1531V19.9V18.9H84.1531H70.7531V10.8878C72.5599 10.8432 74.2546 10.676 75.8352 10.3833L75.849 10.3808L75.8626 10.3778C77.8062 9.96137 79.6201 9.33461 81.3003 8.49447L81.3088 8.49025L81.3171 8.48588C82.7844 7.71732 84.1778 6.77612 85.4973 5.66496L85.5087 5.6553L85.5199 5.64529C86.6989 4.59046 87.6718 3.44263 88.4291 2.20005Z" stroke="#F9F8FF" stroke-width="2"/>
</svg>
