<svg width="114" height="73" viewBox="0 0 114 73" fill="none" xmlns="http://www.w3.org/2000/svg">
<path d="M39.1192 3.32475L39.1255 3.32729C42.4285 4.66117 45.2233 6.75494 47.5191 9.62474L47.5268 9.63429L47.5346 9.64364C49.8942 12.4496 51.7375 16.0514 53.0406 20.4822L53.0406 20.4822L53.0445 20.4951C54.4073 24.9079 55.1 30.2033 55.1 36.4C55.1 42.6681 54.4396 48.0013 53.1406 52.4179C51.836 56.8536 50.0233 60.4591 47.726 63.2668C45.4309 66.072 42.6342 68.1366 39.3255 69.4728L39.3193 69.4754C36.056 70.8191 32.3878 71.5001 28.3 71.5001C24.2139 71.5001 20.5107 70.8196 17.1776 69.4741C13.9363 68.1388 11.1355 66.0735 8.76967 63.2616C6.47558 60.456 4.66496 56.8544 3.36129 52.4244C2.12708 48.0042 1.5 42.6685 1.5 36.4C1.5 30.1998 2.16012 24.8997 3.45937 20.4822C4.76254 16.0514 6.60581 12.4496 8.96536 9.64364L8.96541 9.64368L8.97243 9.63515C11.3405 6.75509 14.1418 4.65841 17.3808 3.32472C20.6459 1.98027 24.2811 1.30005 28.3 1.30005C32.2499 1.30005 35.8522 1.97948 39.1192 3.32475ZM17.3633 18.0524L17.3608 18.0562C14.8632 21.9097 13.7 28.0905 13.7 36.4C13.7 44.7743 14.8626 50.9895 17.3608 54.8439L17.3608 54.844L17.368 54.8547C19.9538 58.7335 23.6329 60.7001 28.3 60.7001C32.9067 60.7001 36.5497 58.7282 39.132 54.8547C41.7036 50.9974 42.9 44.7769 42.9 36.4C42.9 28.0903 41.7038 21.9055 39.1343 18.0487C36.5557 14.1114 32.9135 12.1 28.3 12.1C23.6247 12.1 19.9455 14.1073 17.3633 18.0524ZM88.7683 12.3002L88.7661 12.3003C85.6264 12.3701 82.9807 13.1051 80.907 14.5863L80.9 14.5913L80.8931 14.5965C79.0638 15.9515 77.9243 17.8454 77.4423 20.2H65.8428C66.0877 16.8525 66.963 13.9679 68.4423 11.5202C70.1578 8.72573 72.4065 6.50994 75.197 4.86098L75.1988 4.8599C77.2338 3.65164 79.4636 2.79032 81.8943 2.2786L81.9065 2.27602L81.9187 2.27313C84.3711 1.6923 86.9601 1.40005 89.6883 1.40005H89.6971L89.706 1.39989C97.0477 1.26995 102.701 3.21596 106.798 7.12366L106.798 7.12372L106.808 7.13284C108.563 8.76244 109.987 10.8114 111.072 13.2997L111.075 13.3084C112.139 15.6855 112.688 18.5401 112.688 21.9C112.688 24.363 112.429 26.6857 111.915 28.871C111.408 31.025 110.554 33.017 109.352 34.852L109.341 34.8686L109.331 34.8856C108.555 36.1789 107.716 37.3714 106.816 38.4643L106.812 38.4695C105.966 39.5105 105.089 40.4849 104.181 41.3929L104.168 41.406L104.155 41.4196C103.315 42.325 102.373 43.2344 101.33 44.1475L101.318 44.158L101.306 44.169C100.314 45.095 99.1878 46.1217 97.9277 47.2492C95.4726 49.3724 93.1189 51.3282 90.8664 53.1169L90.8607 53.1215L90.855 53.1261C88.6483 54.9316 86.541 56.7044 84.5334 58.4444L82.5076 60.2001H85.1883H111.888V71H66.2883V60.6579L84.9353 44.5626C86.5494 43.2172 88.1619 41.7726 89.7728 40.2291C91.4521 38.6838 93.0646 37.0715 94.6102 35.3924C96.1908 33.8094 97.5356 32.0857 98.6417 30.2215C99.8681 28.2692 100.515 26.0998 100.588 23.7342C100.728 20.0085 99.743 17.0375 97.4432 15.0444C95.2113 13.11 92.2824 12.23 88.7683 12.3002Z" stroke="#F9F8FF" stroke-width="2"/>
</svg>
